<mxfile host="app.diagrams.net" modified="2021-02-07T10:56:27.665Z" agent="5.0 (Macintosh; Intel Mac OS X 10_15_7) AppleWebKit/537.36 (KHTML, like Gecko) Chrome/88.0.4324.146 Safari/537.36" etag="HXN_ho0fvjnRdhWNl_Rt" version="14.2.9" type="github">
  <diagram name="Page-1" id="c37626ed-c26b-45fb-9056-f9ebc6bb27b6">
    <mxGraphModel dx="2037" dy="1041" grid="1" gridSize="10" guides="1" tooltips="1" connect="1" arrows="1" fold="1" page="1" pageScale="1" pageWidth="1100" pageHeight="850" background="#ffffff" math="0" shadow="0">
      <root>
        <mxCell id="0" />
        <mxCell id="1" parent="0" />
        <mxCell id="N-Fu3y0urq0H9n10JKpY-35" value="Group 2" style="whiteSpace=wrap;html=1;rounded=0;shadow=0;comic=0;strokeWidth=1;fontFamily=Verdana;fontSize=14;fillColor=#f5f5f5;strokeColor=none;fontStyle=1;verticalAlign=top;" parent="1" vertex="1">
          <mxGeometry x="1450" y="879" width="604" height="587" as="geometry" />
        </mxCell>
        <mxCell id="1c7a67bf8fd3230f-80" value="Group 1" style="whiteSpace=wrap;html=1;rounded=0;shadow=0;comic=0;strokeWidth=1;fontFamily=Verdana;fontSize=14;fillColor=#f5f5f5;strokeColor=none;fontStyle=1;verticalAlign=top;" parent="1" vertex="1">
          <mxGeometry x="220" y="879" width="604" height="743" as="geometry" />
        </mxCell>
        <mxCell id="1c7a67bf8fd3230f-37" style="edgeStyle=none;html=1;labelBackgroundColor=none;startFill=0;endArrow=none;endFill=0;strokeWidth=2;fontFamily=Verdana;fontSize=12;" parent="1" edge="1">
          <mxGeometry relative="1" as="geometry">
            <mxPoint x="1020" y="501.4516129032256" as="targetPoint" />
          </mxGeometry>
        </mxCell>
        <mxCell id="1c7a67bf8fd3230f-38" style="edgeStyle=none;html=1;labelBackgroundColor=none;startFill=0;endArrow=none;endFill=0;strokeWidth=2;fontFamily=Verdana;fontSize=12;" parent="1" edge="1">
          <mxGeometry relative="1" as="geometry">
            <mxPoint x="1023.6705882352935" y="476" as="targetPoint" />
          </mxGeometry>
        </mxCell>
        <mxCell id="1c7a67bf8fd3230f-39" style="edgeStyle=none;html=1;labelBackgroundColor=none;startFill=0;endArrow=none;endFill=0;strokeWidth=2;fontFamily=Verdana;fontSize=12;" parent="1" edge="1">
          <mxGeometry relative="1" as="geometry">
            <mxPoint x="1119.2352941176468" y="392.0000000000002" as="sourcePoint" />
          </mxGeometry>
        </mxCell>
        <mxCell id="1c7a67bf8fd3230f-40" style="edgeStyle=none;html=1;labelBackgroundColor=none;startFill=0;endArrow=none;endFill=0;strokeWidth=2;fontFamily=Verdana;fontSize=12;" parent="1" edge="1">
          <mxGeometry relative="1" as="geometry">
            <mxPoint x="1340" y="366" as="sourcePoint" />
          </mxGeometry>
        </mxCell>
        <mxCell id="1c7a67bf8fd3230f-41" style="edgeStyle=none;html=1;labelBackgroundColor=none;startFill=0;endArrow=none;endFill=0;strokeWidth=2;fontFamily=Verdana;fontSize=12;" parent="1" edge="1">
          <mxGeometry relative="1" as="geometry">
            <mxPoint x="1240" y="518.9999999999998" as="targetPoint" />
          </mxGeometry>
        </mxCell>
        <mxCell id="1c7a67bf8fd3230f-45" style="edgeStyle=none;html=1;labelBackgroundColor=none;startFill=0;endArrow=none;endFill=0;strokeWidth=2;fontFamily=Verdana;fontSize=12;" parent="1" edge="1">
          <mxGeometry relative="1" as="geometry">
            <mxPoint x="1020" y="518.9999999999998" as="sourcePoint" />
          </mxGeometry>
        </mxCell>
        <mxCell id="1c7a67bf8fd3230f-64" style="edgeStyle=none;html=1;labelBackgroundColor=none;startFill=0;endArrow=none;endFill=0;strokeWidth=2;fontFamily=Verdana;fontSize=12;" parent="1" edge="1">
          <mxGeometry relative="1" as="geometry">
            <mxPoint x="710" y="515.0916030534352" as="sourcePoint" />
          </mxGeometry>
        </mxCell>
        <mxCell id="1c7a67bf8fd3230f-65" style="edgeStyle=none;html=1;labelBackgroundColor=none;startFill=0;endArrow=none;endFill=0;strokeWidth=2;fontFamily=Verdana;fontSize=12;" parent="1" edge="1">
          <mxGeometry relative="1" as="geometry">
            <mxPoint x="710" y="532.8071065989848" as="sourcePoint" />
          </mxGeometry>
        </mxCell>
        <mxCell id="1c7a67bf8fd3230f-42" style="edgeStyle=none;html=1;labelBackgroundColor=none;startFill=0;endArrow=none;endFill=0;strokeWidth=2;fontFamily=Verdana;fontSize=12;" parent="1" edge="1">
          <mxGeometry relative="1" as="geometry">
            <mxPoint x="1304" y="518.9999999999998" as="sourcePoint" />
          </mxGeometry>
        </mxCell>
        <mxCell id="N-Fu3y0urq0H9n10JKpY-32" style="edgeStyle=none;rounded=0;orthogonalLoop=1;jettySize=auto;html=1;exitX=0.13;exitY=0.77;exitDx=0;exitDy=0;exitPerimeter=0;entryX=0.5;entryY=0;entryDx=0;entryDy=0;entryPerimeter=0;" parent="1" source="1c7a67bf8fd3230f-15" target="1c7a67bf8fd3230f-46" edge="1">
          <mxGeometry relative="1" as="geometry" />
        </mxCell>
        <mxCell id="N-Fu3y0urq0H9n10JKpY-33" style="edgeStyle=none;rounded=0;orthogonalLoop=1;jettySize=auto;html=1;exitX=0.8;exitY=0.8;exitDx=0;exitDy=0;exitPerimeter=0;entryX=0.5;entryY=0;entryDx=0;entryDy=0;entryPerimeter=0;" parent="1" source="1c7a67bf8fd3230f-15" target="1c7a67bf8fd3230f-47" edge="1">
          <mxGeometry relative="1" as="geometry" />
        </mxCell>
        <mxCell id="1c7a67bf8fd3230f-15" value="Internet" style="ellipse;shape=cloud;whiteSpace=wrap;html=1;rounded=0;shadow=0;comic=0;strokeWidth=1;fontFamily=Verdana;fontSize=12;" parent="1" vertex="1">
          <mxGeometry x="1050" y="110" width="120" height="80" as="geometry" />
        </mxCell>
        <mxCell id="N-Fu3y0urq0H9n10JKpY-1" style="edgeStyle=orthogonalEdgeStyle;rounded=0;orthogonalLoop=1;jettySize=auto;html=1;" parent="1" source="1c7a67bf8fd3230f-46" target="1c7a67bf8fd3230f-47" edge="1">
          <mxGeometry relative="1" as="geometry" />
        </mxCell>
        <mxCell id="N-Fu3y0urq0H9n10JKpY-29" style="rounded=0;orthogonalLoop=1;jettySize=auto;html=1;exitX=0.5;exitY=1;exitDx=0;exitDy=0;exitPerimeter=0;entryX=0.12;entryY=0.1;entryDx=0;entryDy=0;entryPerimeter=0;" parent="1" source="1c7a67bf8fd3230f-46" target="1c7a67bf8fd3230f-48" edge="1">
          <mxGeometry relative="1" as="geometry" />
        </mxCell>
        <mxCell id="1c7a67bf8fd3230f-46" value="" style="shape=mxgraph.cisco.routers.router;html=1;dashed=0;fillColor=#036897;strokeColor=#ffffff;strokeWidth=2;verticalLabelPosition=bottom;verticalAlign=top;rounded=0;shadow=0;comic=0;fontFamily=Verdana;fontSize=12;" parent="1" vertex="1">
          <mxGeometry x="890" y="340" width="78" height="53" as="geometry" />
        </mxCell>
        <mxCell id="N-Fu3y0urq0H9n10JKpY-30" style="rounded=0;orthogonalLoop=1;jettySize=auto;html=1;exitX=0.5;exitY=1;exitDx=0;exitDy=0;exitPerimeter=0;entryX=0.88;entryY=0.1;entryDx=0;entryDy=0;entryPerimeter=0;" parent="1" source="1c7a67bf8fd3230f-47" target="1c7a67bf8fd3230f-48" edge="1">
          <mxGeometry relative="1" as="geometry" />
        </mxCell>
        <mxCell id="1c7a67bf8fd3230f-47" value="" style="shape=mxgraph.cisco.routers.router;html=1;dashed=0;fillColor=#036897;strokeColor=#ffffff;strokeWidth=2;verticalLabelPosition=bottom;verticalAlign=top;rounded=0;shadow=0;comic=0;fontFamily=Verdana;fontSize=12;" parent="1" vertex="1">
          <mxGeometry x="1220" y="340" width="78" height="53" as="geometry" />
        </mxCell>
        <mxCell id="N-Fu3y0urq0H9n10JKpY-34" style="edgeStyle=none;rounded=0;orthogonalLoop=1;jettySize=auto;html=1;entryX=0.5;entryY=0;entryDx=0;entryDy=0;entryPerimeter=0;" parent="1" source="1c7a67bf8fd3230f-48" target="N-Fu3y0urq0H9n10JKpY-17" edge="1">
          <mxGeometry relative="1" as="geometry" />
        </mxCell>
        <mxCell id="1c7a67bf8fd3230f-48" value="" style="shape=mxgraph.cisco.routers.router;html=1;dashed=0;fillColor=#036897;strokeColor=#ffffff;strokeWidth=2;verticalLabelPosition=bottom;verticalAlign=top;rounded=0;shadow=0;comic=0;fontFamily=Verdana;fontSize=12;" parent="1" vertex="1">
          <mxGeometry x="1060" y="590" width="78" height="53" as="geometry" />
        </mxCell>
        <mxCell id="N-Fu3y0urq0H9n10JKpY-15" value="Monitoring" style="whiteSpace=wrap;html=1;rounded=0;shadow=0;comic=0;strokeWidth=1;fontFamily=Verdana;fontSize=14;fillColor=#f5f5f5;strokeColor=none;verticalAlign=top;fontStyle=1" parent="1" vertex="1">
          <mxGeometry x="1930" y="190" width="780" height="480" as="geometry" />
        </mxCell>
        <mxCell id="N-Fu3y0urq0H9n10JKpY-27" style="edgeStyle=orthogonalEdgeStyle;rounded=0;orthogonalLoop=1;jettySize=auto;html=1;entryX=0.5;entryY=0;entryDx=0;entryDy=0;" parent="1" source="N-Fu3y0urq0H9n10JKpY-17" target="N-Fu3y0urq0H9n10JKpY-23" edge="1">
          <mxGeometry relative="1" as="geometry" />
        </mxCell>
        <mxCell id="N-Fu3y0urq0H9n10JKpY-40" style="edgeStyle=orthogonalEdgeStyle;rounded=0;orthogonalLoop=1;jettySize=auto;html=1;entryX=0.5;entryY=0;entryDx=0;entryDy=0;entryPerimeter=0;" parent="1" source="N-Fu3y0urq0H9n10JKpY-17" target="N-Fu3y0urq0H9n10JKpY-37" edge="1">
          <mxGeometry relative="1" as="geometry" />
        </mxCell>
        <mxCell id="N-Fu3y0urq0H9n10JKpY-17" value="" style="shape=mxgraph.cisco.routers.router;html=1;pointerEvents=1;dashed=0;fillColor=#036897;strokeColor=#ffffff;strokeWidth=2;verticalLabelPosition=bottom;verticalAlign=top;align=center;outlineConnect=0;" parent="1" vertex="1">
          <mxGeometry x="1060" y="826" width="78" height="53" as="geometry" />
        </mxCell>
        <mxCell id="N-Fu3y0urq0H9n10JKpY-28" style="edgeStyle=orthogonalEdgeStyle;rounded=0;orthogonalLoop=1;jettySize=auto;html=1;exitX=0.5;exitY=0;exitDx=0;exitDy=0;exitPerimeter=0;entryX=0;entryY=0.5;entryDx=0;entryDy=0;entryPerimeter=0;" parent="1" source="N-Fu3y0urq0H9n10JKpY-19" target="N-Fu3y0urq0H9n10JKpY-17" edge="1">
          <mxGeometry relative="1" as="geometry">
            <Array as="points">
              <mxPoint x="522" y="853" />
            </Array>
          </mxGeometry>
        </mxCell>
        <mxCell id="367geSGjwXqfRymfD88E-2" style="edgeStyle=orthogonalEdgeStyle;rounded=0;orthogonalLoop=1;jettySize=auto;html=1;exitX=0.5;exitY=1;exitDx=0;exitDy=0;exitPerimeter=0;entryX=0.5;entryY=0;entryDx=0;entryDy=0;fontSize=16;" edge="1" parent="1" source="N-Fu3y0urq0H9n10JKpY-19" target="N-Fu3y0urq0H9n10JKpY-50">
          <mxGeometry relative="1" as="geometry" />
        </mxCell>
        <mxCell id="N-Fu3y0urq0H9n10JKpY-19" value="" style="shape=mxgraph.cisco.routers.router;html=1;pointerEvents=1;dashed=0;fillColor=#036897;strokeColor=#ffffff;strokeWidth=2;verticalLabelPosition=bottom;verticalAlign=top;align=center;outlineConnect=0;" parent="1" vertex="1">
          <mxGeometry x="483" y="920" width="78" height="53" as="geometry" />
        </mxCell>
        <mxCell id="N-Fu3y0urq0H9n10JKpY-21" value="" style="dashed=0;outlineConnect=0;html=1;align=center;labelPosition=center;verticalLabelPosition=bottom;verticalAlign=top;shape=mxgraph.webicons.apache;gradientColor=#DFDEDE" parent="1" vertex="1">
          <mxGeometry x="370" y="1233" width="60" height="60" as="geometry" />
        </mxCell>
        <mxCell id="N-Fu3y0urq0H9n10JKpY-23" value="SQL" style="aspect=fixed;perimeter=ellipsePerimeter;html=1;align=center;shadow=0;dashed=0;spacingTop=3;image;image=img/lib/active_directory/sql_server.svg;fontSize=16;" parent="1" vertex="1">
          <mxGeometry x="1049" y="1467" width="100" height="129.87" as="geometry" />
        </mxCell>
        <mxCell id="N-Fu3y0urq0H9n10JKpY-24" value="Apache&lt;br style=&quot;font-size: 16px;&quot;&gt;PHP&lt;br style=&quot;font-size: 16px;&quot;&gt;&lt;br style=&quot;font-size: 16px;&quot;&gt;Node Exporter&lt;br style=&quot;font-size: 16px;&quot;&gt;Apache Exporter" style="aspect=fixed;perimeter=ellipsePerimeter;html=1;align=center;shadow=0;dashed=0;spacingTop=3;image;image=img/lib/active_directory/web_server.svg;fontSize=16;" parent="1" vertex="1">
          <mxGeometry x="400" y="1260" width="100" height="125" as="geometry" />
        </mxCell>
        <mxCell id="N-Fu3y0urq0H9n10JKpY-36" style="edgeStyle=orthogonalEdgeStyle;rounded=0;orthogonalLoop=1;jettySize=auto;html=1;exitX=0;exitY=0.5;exitDx=0;exitDy=0;exitPerimeter=0;" parent="1" source="N-Fu3y0urq0H9n10JKpY-37" target="N-Fu3y0urq0H9n10JKpY-39" edge="1">
          <mxGeometry relative="1" as="geometry" />
        </mxCell>
        <mxCell id="N-Fu3y0urq0H9n10JKpY-37" value="" style="shape=mxgraph.cisco.routers.router;html=1;pointerEvents=1;dashed=0;fillColor=#036897;strokeColor=#ffffff;strokeWidth=2;verticalLabelPosition=bottom;verticalAlign=top;align=center;outlineConnect=0;" parent="1" vertex="1">
          <mxGeometry x="1713" y="939" width="78" height="53" as="geometry" />
        </mxCell>
        <mxCell id="N-Fu3y0urq0H9n10JKpY-38" value="" style="dashed=0;outlineConnect=0;html=1;align=center;labelPosition=center;verticalLabelPosition=bottom;verticalAlign=top;shape=mxgraph.webicons.apache;gradientColor=#DFDEDE" parent="1" vertex="1">
          <mxGeometry x="1600" y="1116" width="60" height="60" as="geometry" />
        </mxCell>
        <mxCell id="N-Fu3y0urq0H9n10JKpY-39" value="Apache&lt;br style=&quot;font-size: 16px;&quot;&gt;PHP&lt;br style=&quot;font-size: 16px;&quot;&gt;&lt;br style=&quot;font-size: 16px;&quot;&gt;Node Exporter&lt;br style=&quot;font-size: 16px;&quot;&gt;Apache Exporter" style="aspect=fixed;perimeter=ellipsePerimeter;html=1;align=center;shadow=0;dashed=0;spacingTop=3;image;image=img/lib/active_directory/web_server.svg;fontSize=16;" parent="1" vertex="1">
          <mxGeometry x="1630" y="1143" width="100" height="125" as="geometry" />
        </mxCell>
        <mxCell id="N-Fu3y0urq0H9n10JKpY-42" value="Server" style="whiteSpace=wrap;html=1;rounded=1;shadow=1;comic=0;strokeWidth=2;fontFamily=Verdana;fontSize=14;verticalAlign=top;fontStyle=1;sketch=0;glass=0;fillColor=#FFFFFF;" parent="1" vertex="1">
          <mxGeometry x="2115" y="297.5" width="440" height="222.5" as="geometry" />
        </mxCell>
        <mxCell id="N-Fu3y0urq0H9n10JKpY-46" style="edgeStyle=orthogonalEdgeStyle;rounded=0;orthogonalLoop=1;jettySize=auto;html=1;exitX=0;exitY=0.5;exitDx=0;exitDy=0;entryX=0.88;entryY=0.1;entryDx=0;entryDy=0;entryPerimeter=0;fontSize=16;" parent="1" source="N-Fu3y0urq0H9n10JKpY-25" target="N-Fu3y0urq0H9n10JKpY-17" edge="1">
          <mxGeometry relative="1" as="geometry">
            <Array as="points">
              <mxPoint x="1560" y="338" />
              <mxPoint x="1560" y="831" />
            </Array>
          </mxGeometry>
        </mxCell>
        <mxCell id="N-Fu3y0urq0H9n10JKpY-25" value="" style="perimeter=ellipsePerimeter;html=1;align=center;shadow=0;dashed=0;spacingTop=3;image;image=img/lib/active_directory/generic_server.svg;aspect=fixed;" parent="1" vertex="1">
          <mxGeometry x="2065" y="250" width="100" height="175.13" as="geometry" />
        </mxCell>
        <mxCell id="N-Fu3y0urq0H9n10JKpY-43" value="" style="shape=image;html=1;verticalAlign=top;verticalLabelPosition=bottom;labelBackgroundColor=#ffffff;imageAspect=0;aspect=fixed;image=https://cdn4.iconfinder.com/data/icons/logos-brands-5/24/grafana-128.png;rounded=1;shadow=1;glass=0;sketch=0;strokeColor=#000000;strokeWidth=2;fillColor=#FFFFFF;fontSize=16;" parent="1" vertex="1">
          <mxGeometry x="2220" y="355" width="110" height="110" as="geometry" />
        </mxCell>
        <mxCell id="N-Fu3y0urq0H9n10JKpY-45" value="" style="shape=image;verticalLabelPosition=bottom;labelBackgroundColor=#ffffff;verticalAlign=top;aspect=fixed;imageAspect=0;image=https://cdn.rancher.com/wp-content/uploads/2015/05/27094511/prometheus-logo-square.png;" parent="1" vertex="1">
          <mxGeometry x="2325" y="328.75" width="160" height="160" as="geometry" />
        </mxCell>
        <mxCell id="N-Fu3y0urq0H9n10JKpY-47" value="" style="shape=image;verticalLabelPosition=bottom;labelBackgroundColor=#ffffff;verticalAlign=top;aspect=fixed;imageAspect=0;image=https://cdn.rancher.com/wp-content/uploads/2015/05/27094511/prometheus-logo-square.png;" parent="1" vertex="1">
          <mxGeometry x="1500" y="1084" width="124" height="124" as="geometry" />
        </mxCell>
        <mxCell id="N-Fu3y0urq0H9n10JKpY-48" value="" style="shape=image;verticalLabelPosition=bottom;labelBackgroundColor=#ffffff;verticalAlign=top;aspect=fixed;imageAspect=0;image=https://cdn.rancher.com/wp-content/uploads/2015/05/27094511/prometheus-logo-square.png;" parent="1" vertex="1">
          <mxGeometry x="270" y="1201" width="124" height="124" as="geometry" />
        </mxCell>
        <mxCell id="N-Fu3y0urq0H9n10JKpY-49" value="" style="shape=image;verticalLabelPosition=bottom;labelBackgroundColor=#ffffff;verticalAlign=top;aspect=fixed;imageAspect=0;image=https://cdn.rancher.com/wp-content/uploads/2015/05/27094511/prometheus-logo-square.png;" parent="1" vertex="1">
          <mxGeometry x="950" y="1460" width="124" height="124" as="geometry" />
        </mxCell>
        <mxCell id="N-Fu3y0urq0H9n10JKpY-50" value="" style="shape=image;html=1;verticalAlign=top;verticalLabelPosition=bottom;labelBackgroundColor=#ffffff;imageAspect=0;aspect=fixed;image=https://cdn4.iconfinder.com/data/icons/logos-brands-5/24/nginx-128.png;rounded=1;shadow=1;glass=0;sketch=0;strokeColor=#000000;strokeWidth=2;fillColor=#FFFFFF;fontSize=16;" parent="1" vertex="1">
          <mxGeometry x="477" y="1040" width="90" height="90" as="geometry" />
        </mxCell>
        <mxCell id="N-Fu3y0urq0H9n10JKpY-55" value="" style="dashed=0;outlineConnect=0;html=1;align=center;labelPosition=center;verticalLabelPosition=bottom;verticalAlign=top;shape=mxgraph.webicons.apache;gradientColor=#DFDEDE" parent="1" vertex="1">
          <mxGeometry x="610" y="1233" width="60" height="60" as="geometry" />
        </mxCell>
        <mxCell id="N-Fu3y0urq0H9n10JKpY-56" value="Apache&lt;br style=&quot;font-size: 16px;&quot;&gt;PHP&lt;br style=&quot;font-size: 16px;&quot;&gt;&lt;br style=&quot;font-size: 16px;&quot;&gt;Node Exporter&lt;br style=&quot;font-size: 16px;&quot;&gt;Apache Exporter" style="aspect=fixed;perimeter=ellipsePerimeter;html=1;align=center;shadow=0;dashed=0;spacingTop=3;image;image=img/lib/active_directory/web_server.svg;fontSize=16;" parent="1" vertex="1">
          <mxGeometry x="640" y="1260" width="100" height="125" as="geometry" />
        </mxCell>
        <mxCell id="N-Fu3y0urq0H9n10JKpY-57" value="" style="shape=image;verticalLabelPosition=bottom;labelBackgroundColor=#ffffff;verticalAlign=top;aspect=fixed;imageAspect=0;image=https://cdn.rancher.com/wp-content/uploads/2015/05/27094511/prometheus-logo-square.png;" parent="1" vertex="1">
          <mxGeometry x="510" y="1201" width="124" height="124" as="geometry" />
        </mxCell>
      </root>
    </mxGraphModel>
  </diagram>
</mxfile>
